<svg width="110" height="110" viewBox="0 0 110 110" fill="none" xmlns="http://www.w3.org/2000/svg">
<rect width="110" height="110" rx="8" fill="#131612"/>
<path d="M15.9075 63.0938L32.4388 62.8125C32.8554 62.8125 33.1992 63.1667 33.47 63.875C33.7617 64.5833 34.0429 65.1458 34.3138 65.5625C34.9596 66.5625 36.0221 67.0625 37.5013 67.0625C39.0013 67.0625 40.2096 66.7188 41.1263 66.0312C42.0429 65.3229 42.5013 64.4167 42.5013 63.3125C42.5013 62.2083 42.22 61.4583 41.6575 61.0625C41.095 60.6458 40.4804 60.25 39.8138 59.875C39.1471 59.4792 38.1575 59.1771 36.845 58.9688C35.5533 58.7604 34.845 58.6354 34.72 58.5938H34.7825L33.0013 58.125C31.8554 57.9167 30.8971 57.6875 30.1263 57.4375C25.1471 56.1042 21.5429 54.4271 19.3138 52.4062C17.1054 50.3854 16.0013 47.6667 16.0013 44.25C16.0013 41.7708 16.4596 39.5417 17.3763 37.5625C18.2929 35.5833 19.4908 33.9688 20.97 32.7188C25.2408 29.1146 31.1367 27.3125 38.6575 27.3125C44.6367 27.3125 49.3346 28.3958 52.7513 30.5625H52.72C54.9075 32.1458 56.4075 33.7083 57.22 35.25C58.0325 36.7708 58.5429 38.6562 58.7513 40.9062L57.9388 41.7188C52.4596 41.9271 47.6054 42.0312 43.3763 42.0312C42.1054 42.0312 41.345 41.6562 41.095 40.9062C40.9908 40.5938 40.8763 40.2812 40.7513 39.9688C40.4596 39.2188 39.5221 38.8438 37.9388 38.8438H37.8138C36.5846 38.8438 35.5325 39.1354 34.6575 39.7188C33.7825 40.2812 33.3346 40.8333 33.3138 41.375C33.3138 41.9167 33.4283 42.3646 33.6575 42.7188C33.9075 43.0729 34.1679 43.3542 34.4388 43.5625C34.7096 43.7708 35.1263 43.9896 35.6888 44.2188C36.2513 44.4271 36.6679 44.5729 36.9388 44.6562C37.2304 44.7188 37.6783 44.8333 38.2825 45L39.3763 45.2812C39.8138 45.4062 41.0846 45.7188 43.1888 46.2188C45.3138 46.7188 47.0846 47.1979 48.5013 47.6562V47.625C52.9388 49.125 55.9596 51 57.5638 53.25C59.1888 55.4792 60.0013 58.0833 60.0013 61.0625C60.0013 69 55.2617 74.1458 45.7825 76.5C43.0325 77.1875 40.095 77.6771 36.97 77.9688C33.1367 77.9688 29.345 77.4062 25.595 76.2812C21.845 75.1562 19.3346 73.3229 18.0638 70.7812C17.2096 69.5521 16.6367 68.4271 16.345 67.4062C16.0533 66.3646 15.8138 64.9167 15.6263 63.0625C15.6888 63.0833 15.7825 63.0938 15.9075 63.0938ZM50.3113 41.125L50.28 40.5V38.5625C50.28 35.875 50.3321 32.7917 50.4363 29.3125L50.3738 29.25L52.0613 29.1562C57.4988 28.8646 61.03 28.7188 62.655 28.7188H77.2175C82.1967 28.7188 86.3321 29.75 89.6238 31.8125C90.7904 32.8125 91.7383 34.1562 92.4675 35.8438C93.1967 37.5312 93.5613 39.4375 93.5613 41.5625C93.5613 45.6667 90.8113 49.1562 85.3113 52.0312C88.4154 52.8854 90.7904 54.2604 92.4363 56.1562C94.1029 58.0312 94.9363 60.3333 94.9363 63.0625C94.9363 67.8958 92.7696 71.5625 88.4363 74.0625C85.2488 75.9375 81.2175 76.875 76.3425 76.875L67.03 76.75C63.0092 76.75 57.6758 76.8438 51.03 77.0312C50.4467 75.8021 50.155 70.9375 50.155 62.4375C50.155 53.9375 50.2071 46.8333 50.3113 41.125ZM69.7488 67.2812C75.1446 67.2812 77.8425 65.3958 77.8425 61.625C77.8425 59.2292 77.1133 57.625 75.655 56.8125C74.3425 56.1042 72.3321 55.7083 69.6238 55.625H68.7175L68.155 57.375C68.0092 59.5208 67.9363 61.6354 67.9363 63.7188C67.9363 65.7812 68.155 66.9688 68.5925 67.2812H69.7488ZM76.4675 46.375C76.8842 45.5833 77.0925 44.625 77.0925 43.5C77.0925 41.3125 76.3113 39.8438 74.7488 39.0938C73.1863 38.3438 71.5508 37.9688 69.8425 37.9688C68.1342 37.9688 67.28 38.5938 67.28 39.8438C67.28 42.0729 67.3321 44.3542 67.4363 46.6875L67.4988 48.3438C67.5404 49.1354 67.9988 49.6042 68.8738 49.75L70.405 49.5625C73.5717 49.1875 75.5925 48.125 76.4675 46.375Z" fill="#F5E8CB"/>
</svg>
